<?xml version="1.0" encoding="UTF-8"?>
<svg version="1.1" xmlns="http://www.w3.org/2000/svg" width="512" height="512" viewBox="0 0 512 512">
<path d="M0 0 C1.71113998 -0.00679667 1.71113998 -0.00679667 3.45684844 -0.01373065 C7.28204915 -0.02639792 11.1071079 -0.02475274 14.93232727 -0.02310181 C17.67395566 -0.02799885 20.41557407 -0.03583427 23.15719604 -0.04345703 C29.83367216 -0.06005685 36.51011295 -0.06556615 43.18660798 -0.06668179 C48.61591446 -0.0676329 54.0452093 -0.07174635 59.4745121 -0.07808304 C74.87785477 -0.09569393 90.2811696 -0.10492234 105.68452241 -0.10342209 C106.5145988 -0.10334218 107.34467518 -0.10326227 108.1999054 -0.10317993 C109.03099911 -0.10309817 109.86209282 -0.10301641 110.71837119 -0.10293217 C124.18038126 -0.10211967 137.64227933 -0.12124852 151.10425701 -0.14945666 C164.93698985 -0.17821219 178.76966812 -0.19199544 192.6024316 -0.19026911 C200.36437352 -0.18960605 208.12619808 -0.19506118 215.88811302 -0.21662521 C222.4983661 -0.23487234 229.10844864 -0.23915562 235.71871605 -0.22560637 C239.08833248 -0.21909379 242.45735628 -0.22108678 245.82698441 -0.23631287 C249.48838047 -0.25178283 253.14892459 -0.24244412 256.81030273 -0.22705078 C257.86363428 -0.23733791 258.91696583 -0.24762503 260.00221652 -0.25822389 C272.13160014 -0.14593877 281.67150566 4.31427745 290.72261047 12.26742554 C295.44479256 17.28748181 299.11722269 22.88360809 301.72261047 29.26742554 C302.06492706 30.06729889 302.40724365 30.86717224 302.75993347 31.69128418 C304.09833726 36.66317104 303.98460329 41.37879436 303.94966125 46.50521851 C303.94990232 47.64584307 303.95014339 48.78646763 303.95039177 49.96165657 C303.94890207 53.64438878 303.93368474 57.32691716 303.91792297 61.00961304 C303.91498148 63.28703718 303.91294169 65.56446267 303.91181946 67.84188843 C303.90134443 76.27542145 303.87342195 84.70892551 303.84761047 93.14242554 C303.80636047 111.99367554 303.76511047 130.84492554 303.72261047 150.26742554 C265.77261047 150.26742554 227.82261047 150.26742554 188.72261047 150.26742554 C188.72261047 163.46742554 188.72261047 176.66742554 188.72261047 190.26742554 C192.30233704 190.22101929 195.8820636 190.17461304 199.57026672 190.12680054 C203.08530768 190.09549447 206.60033237 190.07126969 210.11543274 190.04769897 C212.53510126 190.02773763 214.95472251 190.00055881 217.3742218 189.96566772 C243.37465201 189.60044788 243.37465201 189.60044788 255.72261047 194.26742554 C256.52223206 194.55972046 257.32185364 194.85201538 258.14570618 195.15316772 C260.10819121 195.93733436 261.96879068 196.80167704 263.84761047 197.76742554 C264.5008429 198.09710327 265.15407532 198.42678101 265.82710266 198.76644897 C273.19577485 202.71714416 278.92255745 208.33169876 284.72261047 214.26742554 C285.50120422 215.00476929 286.27979797 215.74211304 287.08198547 216.50180054 C288.72261047 218.26742554 288.72261047 218.26742554 288.72261047 220.26742554 C320.40261047 220.26742554 352.08261047 220.26742554 384.72261047 220.26742554 C384.72261047 284.61742554 384.72261047 348.96742554 384.72261047 415.26742554 C374.82261047 415.26742554 364.92261047 415.26742554 354.72261047 415.26742554 C354.72261047 380.61742554 354.72261047 345.96742554 354.72261047 310.26742554 C337.89261047 310.26742554 321.06261047 310.26742554 303.72261047 310.26742554 C303.74355774 314.39959595 303.764505 318.53176636 303.78608704 322.78915405 C303.8525237 336.47949458 303.89681674 350.16983284 303.92985916 363.86029148 C303.9504178 372.15648728 303.97840894 380.45252952 304.02436829 388.74862671 C304.06444264 395.98592473 304.09009187 403.22311145 304.09896445 410.46051735 C304.10414466 414.28689901 304.11617703 418.1129625 304.1455307 421.93924141 C304.17302703 425.55328062 304.18098792 429.16687579 304.1750412 432.78100967 C304.17663714 434.71406525 304.19797848 436.64707438 304.22029114 438.58000183 C304.16581187 450.37206827 301.6132482 461.91957271 296.16011047 472.45492554 C295.82422913 473.11363647 295.48834778 473.77234741 295.14228821 474.45101929 C291.39342261 481.42345325 286.38186 486.80445056 280.72261047 492.26742554 C280.01620422 493.00476929 279.30979797 493.74211304 278.58198547 494.50180054 C274.23432187 498.7830876 269.47920373 501.73422295 264.09761047 504.51742554 C263.19425964 504.993573 263.19425964 504.993573 262.2726593 505.4793396 C248.11061975 512.39581135 234.12397246 512.84989753 218.69526672 512.78500366 C216.51051876 512.7904345 214.32577446 512.79756252 212.14103699 512.8062439 C206.2484514 512.82436568 200.35614825 512.81745593 194.4635582 512.80472755 C188.27263932 512.79454186 182.08174328 512.80400861 175.89082336 512.81027222 C165.49779456 512.81753247 155.10487975 512.80800356 144.71186829 512.78890991 C132.72670626 512.76714435 120.74193652 512.77419685 108.75677204 512.79621553 C98.4335794 512.81441582 88.11046833 512.81690526 77.78726482 512.80646086 C71.63612091 512.80025135 65.48510463 512.79931996 59.33396912 512.81260681 C53.54876702 512.82423221 47.76391313 512.81601799 41.97874832 512.79302979 C39.86614177 512.78777828 37.75350549 512.78919477 35.6409111 512.79808044 C20.68865712 512.85513221 7.07390455 511.7126556 -6.46488953 504.70492554 C-7.45295593 504.20110352 -7.45295593 504.20110352 -8.46098328 503.68710327 C-15.43341723 499.93823768 -20.81441455 494.92667506 -26.27738953 489.26742554 C-27.38340515 488.20781616 -27.38340515 488.20781616 -28.51176453 487.12680054 C-32.79305159 482.77913693 -35.74418694 478.02401879 -38.52738953 472.64242554 C-38.84482117 472.04019165 -39.16225281 471.43795776 -39.48930359 470.81747437 C-45.11274738 459.30301493 -46.87780028 447.47942705 -46.73149109 434.80477905 C-46.73035864 433.43312615 -46.73100418 432.06147084 -46.73326111 430.68981934 C-46.73439374 427.01911628 -46.71112449 423.34895207 -46.68296528 419.67837262 C-46.6577052 415.82274546 -46.65559048 411.96710157 -46.65086365 408.11140442 C-46.63850529 400.83380546 -46.60578209 393.55645116 -46.56546569 386.27895921 C-46.52052357 377.9837616 -46.49870493 369.68855138 -46.47868395 361.39326203 C-46.43704166 344.35115135 -46.36378051 327.30937706 -46.27738953 310.26742554 C-63.10738953 310.26742554 -79.93738953 310.26742554 -97.27738953 310.26742554 C-97.27738953 344.91742554 -97.27738953 379.56742554 -97.27738953 415.26742554 C-107.17738953 415.26742554 -117.07738953 415.26742554 -127.27738953 415.26742554 C-127.27738953 350.91742554 -127.27738953 286.56742554 -127.27738953 220.26742554 C-95.59738953 220.26742554 -63.91738953 220.26742554 -31.27738953 220.26742554 C-30.61738953 218.94742554 -29.95738953 217.62742554 -29.27738953 216.26742554 C-16.73100571 201.86321181 0.49236268 191.65431104 19.79862976 190.00457764 C22.95989225 189.92426988 26.10756578 189.92893502 29.26948547 189.97445679 C30.40670044 189.97870163 31.54391541 189.98294647 32.71559143 189.98731995 C36.30151874 190.00393832 39.88685677 190.04155846 43.47261047 190.07992554 C45.92312312 190.09499415 48.37364468 190.10867871 50.82417297 190.12094116 C56.7907213 190.15121796 62.75601646 190.2099726 68.72261047 190.26742554 C68.72261047 177.06742554 68.72261047 163.86742554 68.72261047 150.26742554 C30.77261047 150.26742554 -7.17738953 150.26742554 -46.27738953 150.26742554 C-46.40113953 122.14523804 -46.40113953 122.14523804 -46.52738953 93.45492554 C-46.56380554 87.55126099 -46.60022156 81.64759644 -46.63774109 75.56503296 C-46.6558075 68.31491089 -46.6558075 68.31491089 -46.65916443 64.91288757 C-46.66527713 62.55417354 -46.67928372 60.19547143 -46.69969177 57.83683777 C-46.72916694 54.24862194 -46.73300706 50.66116503 -46.73149109 47.07284546 C-46.74588352 46.03506297 -46.76027596 44.99728048 -46.77510452 43.92805004 C-46.70710616 31.82464083 -42.20730054 22.29208533 -34.27738953 13.26742554 C-29.25733325 8.54524346 -23.66120697 4.87281332 -17.27738953 2.26742554 C-16.47833285 1.92594168 -15.67927618 1.58445782 -14.85600567 1.23262596 C-9.87409115 -0.11106272 -5.1383658 -0.01495048 0 0 Z M-11.08988953 34.70492554 C-28.49021529 55.08816429 -16.27738953 115.69810445 -16.27738953 120.26742554 C79.42261047 120.26742554 175.12261047 120.26742554 273.72261047 120.26742554 C280.77423944 74.40301523 280.77423944 74.40301523 269.28511047 35.45492554 C264.30577462 31.20427298 260.49322862 30.14456467 254.06640816 30.13879108 C253.15508696 30.13556664 252.24376576 30.13234219 251.30482876 30.12902004 C250.31252125 30.13056864 249.32021374 30.13211724 248.2978363 30.13371277 C246.70625114 30.13031443 246.70625114 30.13031443 245.08251274 30.12684745 C241.52129081 30.12050907 237.96010695 30.12133671 234.39888 30.12216187 C231.84795584 30.11917029 229.29703212 30.11576776 226.74610901 30.11198425 C220.53272534 30.10405919 214.31935566 30.10092961 208.10596742 30.10037187 C203.05513428 30.09989654 198.00430428 30.0978409 192.95347214 30.09467125 C178.63071355 30.08586603 164.30796245 30.0812517 149.98520114 30.08200172 C148.82727198 30.08206166 148.82727198 30.08206166 147.64595032 30.0821228 C146.48660608 30.08218412 146.48660608 30.08218412 145.30384074 30.08224668 C132.77674639 30.08265317 120.24968208 30.07308256 107.72259642 30.05898444 C94.857211 30.04461992 81.99184025 30.03771429 69.1264466 30.03857821 C61.90456299 30.03891014 54.68271089 30.03616471 47.4608345 30.02540016 C40.6696237 30.01534232 33.87849052 30.01563128 27.08727264 30.02291679 C24.59396899 30.02396419 22.10066122 30.02159058 19.60736465 30.01555634 C16.20528166 30.00785557 12.80342984 30.01246871 9.40135193 30.02018738 C8.41350586 30.01504381 7.42565979 30.00990025 6.40787899 30.00460082 C-0.24911108 30.0380028 -5.85892283 30.17142107 -11.08988953 34.70492554 Z M98.72261047 150.26742554 C98.72261047 163.46742554 98.72261047 176.66742554 98.72261047 190.26742554 C118.52261047 190.26742554 138.32261047 190.26742554 158.72261047 190.26742554 C158.72261047 177.06742554 158.72261047 163.86742554 158.72261047 150.26742554 C138.92261047 150.26742554 119.12261047 150.26742554 98.72261047 150.26742554 Z M-6.27738953 237.26742554 C-16.47612249 250.87961199 -16.42849777 265.54217196 -16.4226532 281.88778687 C-16.42564933 283.56420465 -16.4290529 285.24062176 -16.43283081 286.91703796 C-16.44162838 291.45022773 -16.44400712 295.9833986 -16.4446466 300.51659608 C-16.44535946 303.35418724 -16.44749825 306.19177366 -16.45014381 309.02936363 C-16.45938291 318.94408852 -16.46348047 328.8588 -16.46269226 338.77352905 C-16.46209173 347.9910427 -16.47264247 357.20849777 -16.48843592 366.4259966 C-16.50154353 374.36090996 -16.50687481 382.29580424 -16.50623685 390.23072833 C-16.50598283 394.96052437 -16.508781 399.6902683 -16.5194149 404.42005348 C-16.52915036 408.87131003 -16.529138 413.32246523 -16.52189827 417.77372551 C-16.5208592 419.39898961 -16.52317463 421.0242602 -16.52925873 422.64951324 C-16.59219455 440.63947114 -15.04443603 456.3776551 -1.95707703 469.85336304 C9.49022042 480.16594295 22.41928374 482.43215588 37.31692505 482.40113831 C38.13285855 482.40340386 38.94879206 482.40566942 39.78945082 482.40800363 C42.49741011 482.41428533 45.20531859 482.41351805 47.9132843 482.41268921 C49.86556055 482.41568433 51.8178362 482.41908767 53.77011108 482.42286682 C59.05534245 482.43167469 64.34055761 482.43404357 69.6257956 482.43468261 C72.93241369 482.43539488 76.23902769 482.43753256 79.54564476 482.44017982 C91.09430069 482.44942231 102.64294511 482.45351605 114.19160461 482.45272827 C124.93599885 482.45212763 135.68034287 482.46267955 146.4247244 482.47847193 C155.66748216 482.49157037 164.91022355 482.49691121 174.15299052 482.49627286 C179.66526253 482.49601857 185.17748986 482.49883168 190.68975258 482.50945091 C195.87641969 482.51917083 201.06299975 482.51918447 206.24967003 482.51193428 C208.14584354 482.5108933 210.04202258 482.5132222 211.93818665 482.51929474 C230.60918473 482.57518487 247.19280289 481.65606431 261.30854797 467.94711304 C273.76382323 454.12135442 273.87419357 438.32070353 273.86787415 420.64706421 C273.87087028 418.97064642 273.87427385 417.29422932 273.87805176 415.61781311 C273.88684932 411.08462334 273.88922807 406.55145248 273.88986754 402.018255 C273.89058041 399.18066384 273.8927192 396.34307742 273.89536476 393.50548744 C273.90460386 383.59076255 273.90870141 373.67605107 273.90791321 363.76132202 C273.90731267 354.54380838 273.91786342 345.3263533 273.93365687 336.10885447 C273.94676448 328.17394112 273.95209576 320.23904683 273.9514578 312.30412275 C273.95120378 307.5743267 273.95400194 302.84458277 273.96463585 298.11479759 C273.9743713 293.66354104 273.97435895 289.21238585 273.96711922 284.76112556 C273.96608015 283.13586147 273.96839558 281.51059087 273.97447968 279.88533783 C274.0374155 261.89537993 272.48965698 246.15719597 259.40229797 232.68148804 C247.95500053 222.36890812 235.02593721 220.1026952 220.1282959 220.13371277 C218.90439564 220.13031443 218.90439564 220.13031443 217.65577012 220.12684745 C214.94781084 220.12056575 212.23990236 220.12133303 209.53193665 220.12216187 C207.5796604 220.11916675 205.62738475 220.11576341 203.67510986 220.11198425 C198.3898785 220.10317638 193.10466334 220.10080751 187.81942534 220.10016847 C184.51280726 220.09945619 181.20619326 220.09731851 177.89957619 220.09467125 C166.35092026 220.08542876 154.80227584 220.08133503 143.25361633 220.0821228 C132.50922209 220.08272344 121.76487808 220.07217153 111.02049655 220.05637914 C101.77773878 220.0432807 92.53499739 220.03793987 83.29223043 220.03857821 C77.77995842 220.0388325 72.26773109 220.03601939 66.75546837 220.02540016 C61.56880126 220.01568025 56.38222119 220.0156666 51.19555092 220.02291679 C49.29937741 220.02395777 47.40319837 220.02162887 45.5070343 220.01555634 C25.33688616 219.95517862 8.04926471 221.36437569 -6.27738953 237.26742554 Z M-97.27738953 250.26742554 C-97.27738953 260.16742554 -97.27738953 270.06742554 -97.27738953 280.26742554 C-80.44738953 280.26742554 -63.61738953 280.26742554 -46.27738953 280.26742554 C-45.94738953 270.36742554 -45.61738953 260.46742554 -45.27738953 250.26742554 C-62.43738953 250.26742554 -79.59738953 250.26742554 -97.27738953 250.26742554 Z M302.72261047 250.26742554 C303.05261047 260.16742554 303.38261047 270.06742554 303.72261047 280.26742554 C320.55261047 280.26742554 337.38261047 280.26742554 354.72261047 280.26742554 C354.72261047 270.36742554 354.72261047 260.46742554 354.72261047 250.26742554 C337.56261047 250.26742554 320.40261047 250.26742554 302.72261047 250.26742554 Z " fill="currentColor" transform="translate(127.27738952636719,-0.267425537109375)"/>
</svg>
