<?xml version="1.0" encoding="UTF-8"?>
<svg version="1.1" xmlns="http://www.w3.org/2000/svg" width="512" height="512" viewBox="0 0 512 512">
<path d="M0 0 C0.78482606 -0.00453111 1.56965212 -0.00906223 2.37826079 -0.01373065 C4.98056294 -0.02628538 7.58265342 -0.02476017 10.1849823 -0.02310181 C12.06157192 -0.02909222 13.93815908 -0.03589894 15.81474304 -0.04345703 C20.89077635 -0.06106146 25.96674216 -0.06580976 31.04280305 -0.0670886 C34.21468633 -0.06851269 37.38655258 -0.07278694 40.55843163 -0.07808304 C51.62455202 -0.09655735 62.69062434 -0.10475597 73.75675964 -0.10317993 C84.07421509 -0.10197578 94.39146229 -0.12313829 104.70886499 -0.15466726 C113.57189062 -0.1807876 122.43484798 -0.19154918 131.29791182 -0.19026911 C136.58977357 -0.18975869 141.88144967 -0.1954876 147.17327309 -0.21662521 C152.1433197 -0.2359388 157.11300202 -0.23617946 162.08306122 -0.22159195 C163.9084215 -0.21949492 165.73380422 -0.22425764 167.5591259 -0.23631287 C170.04717414 -0.25168399 172.53395297 -0.24251259 175.02197266 -0.22705078 C175.74735334 -0.23733791 176.47273402 -0.24762503 177.22009593 -0.25822389 C180.64824328 -0.21100404 182.38773694 0.02569669 185.11440563 2.18114281 C187.61155265 5.48029009 187.61155265 5.48029009 187.69352722 8.26742554 C186.4923092 11.60414226 185.7303649 13.70435503 182.55020237 15.43139076 C179.03392652 16.46046433 175.74072705 16.54312404 172.11172485 16.51898193 C170.97870574 16.52343714 170.97870574 16.52343714 169.82279736 16.52798235 C167.29582444 16.53561086 164.76908476 16.52913294 162.24211121 16.52279663 C160.4283533 16.52554718 158.6145966 16.52922747 156.80084229 16.5337677 C152.89561778 16.54187787 148.99045053 16.54404855 145.08521843 16.54182053 C138.90236622 16.53898524 132.7196281 16.55334902 126.5368042 16.57080078 C108.95519229 16.61780234 91.37358783 16.6417563 73.79191589 16.64828491 C64.08100495 16.65204308 54.37022287 16.67013549 44.65936714 16.70337927 C38.52172674 16.72353309 32.38442009 16.7259926 26.24676025 16.7150991 C22.41443333 16.71247975 18.58229798 16.7265561 14.75002098 16.74518013 C12.98286388 16.75047329 11.21567085 16.74905499 9.44852829 16.74014473 C-2.84540695 16.68319476 -14.19894244 17.40601305 -24.30647278 25.26742554 C-23.32614075 26.24582397 -23.32614075 26.24582397 -22.32600403 27.24398804 C-20.00392952 29.56524577 -17.69158941 31.89598124 -15.38069153 34.22836304 C-13.91850947 35.69977437 -12.45626848 37.17112714 -10.99397278 38.64242554 C-10.27274231 39.37203491 -9.55151184 40.10164429 -8.8084259 40.85336304 C-4.73377785 44.94628306 -0.5647963 48.8384062 3.81144714 52.60580444 C6.7421628 55.19322833 9.46264767 57.97239923 12.19352722 60.76742554 C16.32876501 64.95531864 20.49854132 69.01462 25.00993347 72.80258179 C26.69352722 74.26742554 26.69352722 74.26742554 28.49821472 76.26742554 C39.75023541 86.51837676 63.14919669 89.63876352 77.69352722 91.26742554 C78.64227722 91.37828491 79.59102722 91.48914429 80.56852722 91.60336304 C116.27678061 95.04400204 156.3428522 91.16745785 189.89274597 77.96664429 C197.89299618 75.96937122 204.56950391 77.86396704 212.19352722 80.45492554 C256.56529327 94.723877 313.67189507 99.96303228 357.69352722 81.26742554 C363.09303305 78.13527612 367.39811941 73.99447868 371.88102722 69.70492554 C372.62989197 68.99473267 373.37875671 68.28453979 374.15031433 67.55282593 C379.31070157 62.6411053 384.3580092 57.63166234 389.36540222 52.56430054 C391.35505349 50.601356 393.3766158 48.76224112 395.50602722 46.95492554 C401.398831 41.9319535 406.74015766 36.2993784 412.17985535 30.79721069 C414.0107012 28.94687519 415.85063431 27.10575683 417.69352722 25.26742554 C416.57982005 24.48036432 415.45150895 23.71397852 414.31852722 22.95492554 C413.69204285 22.52566772 413.06555847 22.09640991 412.42008972 21.65414429 C402.49610142 16.60684365 392.43773331 16.84169227 381.57926941 16.88265991 C379.75503705 16.87854942 377.93080731 16.87308572 376.10658264 16.86637878 C372.19540511 16.85469891 368.28436851 16.85215313 364.37317657 16.85673523 C358.18734588 16.8635676 352.00169946 16.84763971 345.81590271 16.82833862 C331.57518947 16.78734571 317.33448175 16.77593359 303.09371948 16.76480865 C290.02625982 16.75429876 276.95888919 16.73753576 263.8914845 16.69671297 C257.74301447 16.67836123 251.59475658 16.67446232 245.4462657 16.68164825 C241.62410141 16.6831697 237.80204344 16.67238957 233.97990799 16.65826988 C232.2086108 16.65426675 230.43729342 16.65539306 228.66600418 16.66204262 C226.24675698 16.67042708 223.82824532 16.66043117 221.40904236 16.64596558 C220.70962422 16.65285951 220.01020608 16.65975345 219.28959346 16.66685629 C214.71956957 16.61367881 211.57422968 15.6758185 207.69352722 13.26742554 C206.14765846 10.17568802 206.39993201 7.67313001 206.69352722 4.26742554 C208.23484802 2.07218838 208.23484802 2.07218838 210.69352722 0.26742554 C213.38136924 -0.1235149 215.65921417 -0.2694425 218.34489441 -0.23377991 C219.11980382 -0.2393143 219.89471323 -0.2448487 220.69310474 -0.25055081 C223.29252914 -0.26417528 225.89099629 -0.24917838 228.49040222 -0.23428345 C230.35327564 -0.23806623 232.21614625 -0.24356593 234.07901001 -0.25065613 C239.14358607 -0.26464108 244.2078235 -0.25341614 249.27238083 -0.23694491 C254.5772351 -0.22309923 259.8820696 -0.22955457 265.18693542 -0.233078 C274.1047155 -0.23578239 283.02236117 -0.22229132 291.94010925 -0.1991272 C302.23058417 -0.17258126 312.52083342 -0.17074878 322.8113308 -0.18251556 C332.72224674 -0.19332531 342.63308155 -0.18707701 352.54399109 -0.17296028 C356.75421582 -0.16722158 360.96438077 -0.16726663 365.17460632 -0.17202568 C370.14541209 -0.17682551 375.1159735 -0.16657007 380.08673286 -0.14507103 C381.90387714 -0.13954131 383.72104509 -0.13900245 385.53819084 -0.1440239 C404.65097395 -0.19018415 420.21637193 3.27401001 434.48649597 17.03695679 C435.21481628 17.77301147 435.9431366 18.50906616 436.69352722 19.26742554 C437.32903503 19.86941772 437.96454285 20.47140991 438.61930847 21.09164429 C448.04844744 30.72985507 453.00092755 45.18248994 452.98405457 58.4559021 C452.9941304 59.61844513 452.9941304 59.61844513 453.00440979 60.80447388 C453.02324501 63.33906641 453.02730522 65.87339262 453.02946472 68.40805054 C453.03589796 70.18065497 453.04262671 71.95325835 453.04963684 73.7258606 C453.0615698 77.42756618 453.0653213 81.12917866 453.06413269 84.8309021 C453.06392862 89.57460718 453.09133832 94.31771907 453.12567711 99.06128311 C453.14789422 102.71583814 453.15197199 106.37024854 453.15091324 110.0248642 C453.15327288 111.77438164 453.16211686 113.52390286 453.17757797 115.27335358 C453.19715274 117.71483958 453.19143661 120.15502055 453.17936707 122.5965271 C453.19060608 123.31763672 453.20184509 124.03874634 453.21342468 124.78170776 C453.17106685 128.14989309 452.90878467 129.97653082 450.88191223 132.71560669 C447.67873146 134.98703346 445.52177632 134.81431827 441.69352722 134.26742554 C438.75035915 132.08706751 437.79983018 130.90101746 437.18800354 127.25437927 C437.1851535 126.07669479 437.18230347 124.89901031 437.17936707 123.68563843 C437.16867943 122.70659042 437.16867943 122.70659042 437.15777588 121.70776367 C437.13849597 119.55156146 437.14678034 117.39634175 437.15446472 115.24008179 C437.14454855 113.72993044 437.13260381 112.21979118 437.11872864 110.70967102 C437.08634012 106.72797539 437.07597615 102.74655434 437.07188416 98.76473999 C437.06314328 92.42490107 437.0270799 86.08528888 436.97970963 79.74563408 C436.96730107 77.54960708 436.9678685 75.35387595 436.96998596 73.15782166 C436.93598005 60.5144282 436.23280169 49.32429039 429.69352722 38.26742554 C422.343093 44.96344909 415.15745215 51.75427558 408.16618347 58.82601929 C406.10695581 60.85922196 404.02197129 62.77018809 401.81852722 64.64242554 C397.50723059 68.31501156 393.56714799 72.33811005 389.61198425 76.38607788 C389.09233093 76.91411011 388.57267761 77.44214233 388.03727722 77.98617554 C387.5386788 78.50098166 387.04008038 79.01578777 386.52637291 79.54619408 C384.69352722 81.26742554 384.69352722 81.26742554 382.65003395 82.66051674 C379.26130863 85.06799322 377.04803602 86.92624805 375.96294785 91.031353 C375.69402185 94.48184318 375.68109804 97.85146535 375.75358582 101.31185913 C375.74920502 102.61515671 375.74482422 103.91845428 375.74031067 105.26124573 C375.72950831 108.82206326 375.76819272 112.38078456 375.81651258 115.94122648 C375.85926366 119.67787196 375.85792196 123.41451603 375.8618927 127.15136719 C375.87477266 133.42772222 375.91719651 139.7032956 375.98014832 145.9793396 C376.0606458 154.01477329 376.09551931 162.04969745 376.11476707 170.08548546 C376.13142612 177.01671526 376.16587955 183.947839 376.20484209 190.87897539 C376.21291878 192.36097166 376.22040111 193.8429713 376.22728682 195.32497358 C376.25000622 200.20494121 376.29044784 205.08442717 376.33952332 209.96420288 C376.34490112 211.18319778 376.35027893 212.40219269 376.3558197 213.65812683 C376.06409463 224.42371079 376.06409463 224.42371079 380.14136314 233.94592857 C382.84829205 236.25058076 384.68489242 236.39949558 388.15568542 236.42855835 C389.08037125 236.43816589 390.00505707 236.44777344 390.95776367 236.45767212 C392.46085335 236.46404694 392.46085335 236.46404694 393.99430847 236.47055054 C395.02283432 236.47625061 396.05136017 236.48195068 397.11105347 236.48782349 C399.2907966 236.49728173 401.47055408 236.50381073 403.65031433 236.50765991 C406.98203074 236.5173557 410.31312783 236.54836769 413.6446991 236.57992554 C415.76123189 236.58645647 417.8777691 236.59170659 419.99430847 236.59555054 C420.99029556 236.60789734 421.98628265 236.62024414 423.01245117 236.63296509 C429.89911123 236.69046408 429.89911123 236.69046408 435.69352722 233.26742554 C436.98923531 229.70377416 436.82483749 226.11490042 436.83537292 222.35922241 C436.83884735 221.67255997 436.84232178 220.98589752 436.84590149 220.27842712 C436.85323691 218.79157821 436.85859405 217.30471849 436.86219215 215.81785583 C436.86937615 213.46400124 436.8850553 211.11035286 436.90353394 208.75656128 C436.95592517 202.06571201 437.00400702 195.37497964 437.01945496 188.68392944 C437.02953111 184.58774307 437.05883938 180.49208186 437.10077477 176.39610291 C437.11308881 174.83644073 437.11820527 173.27670443 437.11597633 171.71699524 C437.11362551 169.53596796 437.13576726 167.35645176 437.16349792 165.17562866 C437.16936417 163.93526855 437.17523041 162.69490845 437.18127441 161.41696167 C437.78919096 157.67924643 438.66647086 156.48269224 441.69352722 154.26742554 C445.52713056 153.71976792 447.68038912 153.54302416 450.87992859 155.83071899 C453.30131656 159.08403635 453.25607672 161.8534632 453.21110535 165.75473022 C453.22161926 166.87749863 453.22161926 166.87749863 453.23234558 168.02294922 C453.24993733 170.49544486 453.2382947 172.96679337 453.22477722 175.43930054 C453.22747295 177.16320006 453.23135605 178.8870981 453.2363739 180.61099243 C453.24227148 184.22578392 453.2337021 187.84018003 453.2150116 191.45492554 C453.19229005 196.07287698 453.20529983 200.689895 453.22930145 205.30781174 C453.24381111 208.86993333 453.23912871 212.43183669 453.22879028 215.99396515 C453.22613368 217.69549929 453.22935501 219.39705365 453.2387085 221.09856415 C453.31353417 238.5458111 453.31353417 238.5458111 447.08805847 246.25570679 C437.28171624 254.46397843 426.86190627 253.62184434 414.69352722 253.26742554 C414.73993347 254.31801147 414.78633972 255.36859741 414.83415222 256.45101929 C415.08476279 264.54284912 415.18762632 271.21200422 410.69352722 278.26742554 C410.15727722 279.17492554 409.62102722 280.08242554 409.06852722 281.01742554 C400.13770962 289.4782001 389.69148366 288.97933968 378.15202332 288.89852905 C376.28177208 288.90367372 374.4115257 288.91095912 372.54129028 288.92021179 C367.48553727 288.93866163 362.43031439 288.9258288 357.37458372 288.90612149 C352.07322842 288.88968547 346.77190537 288.89855455 341.47053528 288.90364075 C332.57179841 288.90815537 323.67327219 288.89232898 314.77458191 288.86434937 C304.49634929 288.83228071 294.21849607 288.83232295 283.94023645 288.84956414 C274.03675047 288.86544245 264.13340318 288.8586885 254.22992325 288.84162712 C250.02195657 288.83476675 245.81410139 288.83577862 241.60613632 288.84317207 C236.64996646 288.85084858 231.69422709 288.8386641 226.73813057 288.81132317 C224.92253077 288.80445335 223.10689066 288.80432628 221.29129219 288.8115387 C218.80684247 288.82026894 216.32371065 288.80421852 213.83937073 288.78208923 C213.12632353 288.79033 212.41327634 288.79857077 211.67862165 288.80706125 C206.79238607 288.72709916 203.54086379 287.47897704 199.41960108 285.06329674 C197.58446569 284.00311216 197.58446569 284.00311216 195.00602722 284.89242554 C194.24290222 285.34617554 193.47977722 285.79992554 192.69352722 286.26742554 C188.44477215 288.37176184 184.56211042 288.55715129 179.90844727 288.5415802 C179.1312723 288.54681688 178.35409733 288.55205356 177.55337161 288.55744892 C174.95265832 288.57243445 172.35214203 288.57315376 169.75138855 288.57382202 C167.88512338 288.5814446 166.01886135 288.58987227 164.15260315 288.5990448 C159.08420155 288.62098981 154.01586029 288.62978898 148.94741654 288.63487124 C145.77885807 288.63851549 142.61031538 288.64475599 139.44176292 288.65187263 C128.38171571 288.67636931 117.3217154 288.68941904 106.26164246 288.69296265 C95.9625242 288.69659576 85.66370434 288.72647462 75.36467725 288.76836723 C66.51522612 288.8030977 57.66587373 288.81851158 48.81635493 288.81920868 C43.53425273 288.8200007 38.25245436 288.82870451 32.97042274 288.85720634 C27.9987138 288.88343334 23.02755955 288.88556625 18.05581284 288.8695507 C16.23619436 288.86773977 14.41654365 288.87439466 12.5969944 288.89036942 C-5.87244774 289.04256953 -5.87244774 289.04256953 -13.30647278 283.26742554 C-19.71004674 276.53169477 -21.64636867 270.03376601 -21.43147278 260.89242554 C-21.42244934 260.15637085 -21.4134259 259.42031616 -21.40412903 258.66195679 C-21.38077422 256.86363673 -21.34491113 255.06548642 -21.30647278 253.26742554 C-22.58522278 253.30223022 -23.86397278 253.33703491 -25.18147278 253.37289429 C-26.88979287 253.40105341 -28.5981273 253.42835127 -30.30647278 253.45492554 C-31.14565247 253.48006226 -31.98483215 253.50519897 -32.84944153 253.53109741 C-40.46372038 253.61963554 -46.79696408 252.17647258 -52.61897278 247.01742554 C-53.25448059 246.47601929 -53.8899884 245.93461304 -54.54475403 245.37680054 C-58.82217889 240.25527188 -59.75032937 234.98044034 -59.68742371 228.47634888 C-59.69210368 227.72267194 -59.69678365 226.968995 -59.70160544 226.19247937 C-59.71351029 223.68309931 -59.70411599 221.17426997 -59.69465637 218.66488647 C-59.69872422 216.85906151 -59.7040673 215.05323904 -59.71058655 213.24742126 C-59.72424446 208.35256294 -59.71896673 203.45789468 -59.70944929 198.5630331 C-59.70184016 193.43122798 -59.70890222 188.29943884 -59.71360779 183.16763306 C-59.71906365 174.54608245 -59.71188021 165.92460896 -59.69758606 157.30307007 C-59.6812806 147.35390771 -59.68653345 137.40493 -59.70306528 127.45577216 C-59.7167097 118.90009988 -59.71858475 110.34448299 -59.71074927 101.78880334 C-59.70608632 96.68508651 -59.70540942 91.58145623 -59.71535873 86.47774506 C-59.72406845 81.67435067 -59.71793371 76.87119247 -59.70067596 72.06782341 C-59.69673154 70.31152932 -59.69780985 68.55521513 -59.70446396 66.79892921 C-59.76849505 48.17112401 -55.84421362 32.08157058 -42.46662903 18.36898804 C-41.75377747 17.67547241 -41.0409259 16.98195679 -40.30647278 16.26742554 C-39.78955872 15.71828491 -39.27264465 15.16914429 -38.74006653 14.60336304 C-34.86547982 10.81982405 -30.20927355 8.46659193 -25.43147278 6.01742554 C-24.77139221 5.67566284 -24.11131165 5.33390015 -23.43122864 4.98178101 C-15.87966057 1.26662054 -8.36656717 -0.03628113 0 0 Z M-37.30647278 38.26742554 C-37.93956469 39.4506313 -38.56243996 40.63930401 -39.18147278 41.82992554 C-39.52951965 42.4912146 -39.87756653 43.15250366 -40.23616028 43.83383179 C-42.73647667 49.51885774 -43.55877422 54.73301355 -43.58062744 60.91578674 C-43.58586412 61.65398488 -43.5911008 62.39218301 -43.59649616 63.15275079 C-43.61141554 65.60924449 -43.6121995 68.06552844 -43.61286926 70.52206421 C-43.62049573 72.28998666 -43.62892407 74.0579058 -43.63809204 75.82582092 C-43.65998503 80.61478492 -43.66882795 85.4036851 -43.67391849 90.19269347 C-43.67756563 93.18466111 -43.6838073 96.1766121 -43.69091988 99.16857338 C-43.71538805 109.60574705 -43.72846235 120.04287114 -43.73200989 130.48007202 C-43.73565187 140.21245711 -43.76560126 149.94452814 -43.80741447 159.67681712 C-43.84206485 168.03449977 -43.85755735 176.39207795 -43.85825592 184.74983197 C-43.85904998 189.74108496 -43.86784906 194.73201722 -43.89625359 199.72319603 C-43.9223471 204.4125768 -43.92468857 209.10136869 -43.90859795 213.79078865 C-43.90677698 215.5129512 -43.91353234 217.23514699 -43.92941666 218.95723724 C-43.94976007 221.30553406 -43.93939786 223.65174702 -43.92120361 226.00001526 C-43.92321494 227.31461825 -43.92522627 228.62922125 -43.92729855 229.9836607 C-43.59219423 233.42805034 -43.59219423 233.42805034 -40.91742039 235.69031334 C-38.10582587 237.38862394 -36.65848518 237.76848183 -33.41194153 237.76913452 C-32.46746155 237.77851547 -31.52298157 237.78789642 -30.54988098 237.79756165 C-29.54143127 237.78632767 -28.53298157 237.77509369 -27.49397278 237.76351929 C-26.44749573 237.76497452 -25.40101868 237.76642975 -24.3228302 237.76792908 C-22.11389884 237.76627168 -19.90495574 237.75472832 -17.69612122 237.73397827 C-14.31834269 237.70502727 -10.9421345 237.71337277 -7.56428528 237.72640991 C-5.41584016 237.72017212 -3.2674 237.71178086 -1.11897278 237.70101929 C-0.11052307 237.70395493 0.89792664 237.70689056 1.93693542 237.70991516 C8.84774508 237.68067463 8.84774508 237.68067463 14.69352722 234.26742554 C16.82568063 230.91326846 16.98777266 228.09225271 17.08781433 224.16073608 C17.1237117 222.88044022 17.15960907 221.60014435 17.19659424 220.28105164 C17.22611989 218.84292805 17.25502062 217.40479152 17.28337097 215.96664429 C17.31955035 214.43007267 17.35601324 212.89350771 17.39273071 211.35694885 C17.51409354 205.99410772 17.60593385 200.63091116 17.69352722 195.26742554 C17.71037819 194.25728645 17.72722916 193.24714737 17.74459076 192.20639801 C17.96984799 178.4571443 18.12116692 164.7085537 18.19001198 150.95761299 C18.22113949 144.85913306 18.26849916 138.7616738 18.35197449 132.66366577 C18.43382024 126.6580079 18.47656468 120.65325482 18.49148369 114.64706993 C18.50368068 112.38441024 18.52959466 110.12177854 18.56993294 107.85944557 C18.62334714 104.71935009 18.62641335 101.58292712 18.61759949 98.44247437 C18.65838623 97.067304 18.65838623 97.067304 18.69999695 95.66435242 C18.6226867 90.31627293 17.66672763 87.68132413 13.86624146 83.83070374 C12.49836033 82.61650045 11.1078939 81.42714761 9.69352722 80.26742554 C8.46376692 79.20561267 7.23450518 78.14322175 6.00602722 77.07992554 C5.35247253 76.51918335 4.69891785 75.95844116 4.02555847 75.38070679 C0.97283109 72.6143324 -1.91056493 69.69637755 -4.80647278 66.76742554 C-8.78907189 62.73964022 -12.80364283 58.87535268 -17.13850403 55.22445679 C-19.00039248 53.54372505 -20.75311544 51.82140134 -22.50569153 50.02914429 C-23.07996887 49.44262085 -23.65424622 48.85609741 -24.2459259 48.25180054 C-25.3882885 47.07752838 -26.52403233 45.89677096 -27.6521759 44.70883179 C-30.66636312 41.61020327 -33.04188262 39.50961599 -37.30647278 38.26742554 Z M204.69352722 96.26742554 C204.57676675 118.47663865 204.48857471 140.68580122 204.43446636 162.8952589 C204.40867601 173.20732567 204.37350953 183.51920182 204.31632996 193.83114624 C204.26652052 202.81821468 204.23424226 211.80514509 204.22308475 220.79234773 C204.21656182 225.55182977 204.20121386 230.31091688 204.16487694 235.07027245 C204.13095629 239.54940893 204.12046626 244.02798757 204.12798882 248.5072403 C204.1266125 250.15159193 204.11665631 251.79596209 204.09749985 253.44020271 C204.07262128 255.68559816 204.07860054 257.92888753 204.09225464 260.17433167 C204.08764567 261.4307355 204.08303671 262.68713934 204.07828808 263.98161602 C204.88576732 268.29412282 206.13954345 269.72936855 209.69352722 272.26742554 C212.42378121 272.75921137 214.53067034 272.94173774 217.25323486 272.89561462 C218.38247011 272.90625621 218.38247011 272.90625621 219.53451818 272.91711277 C222.05296825 272.93469215 224.56987478 272.91658974 227.08830261 272.89852905 C228.89534203 272.90366788 230.70237643 272.91094888 232.50939941 272.92021179 C237.4143627 272.93873737 242.31878292 272.92578044 247.22372365 272.90612149 C252.35481358 272.88974577 257.48586883 272.89854627 262.61697388 272.90364075 C271.23283065 272.9081625 279.84847039 272.89228577 288.46427917 272.86434937 C298.42950222 272.83228697 308.394334 272.83231689 318.35958487 272.84956414 C327.94218042 272.86541904 337.52463234 272.85870299 347.1072216 272.84162712 C351.18731439 272.8347493 355.2672923 272.83579654 359.3473835 272.84317207 C364.14999571 272.85082439 368.95216172 272.83874332 373.7546978 272.81132317 C375.51875865 272.80442755 377.28286108 272.80435393 379.04692078 272.8115387 C381.45204876 272.82020684 383.8557913 272.80432388 386.26080322 272.78208923 C387.31211201 272.79445038 387.31211201 272.79445038 388.38465935 272.80706125 C391.75267172 272.74944701 393.42248168 272.48262921 396.09557247 270.36025906 C398.92962296 266.64851699 398.80154935 264.28568268 398.75602722 259.64242554 C398.74700378 258.45390991 398.73798035 257.26539429 398.72868347 256.04086304 C398.71708191 255.12562866 398.70548035 254.21039429 398.69352722 253.26742554 C397.57075378 253.23004272 396.44798035 253.19265991 395.29118347 253.15414429 C374.35688624 252.30097116 374.35688624 252.30097116 367.69352722 245.26742554 C360.18090531 235.17028647 360.3979722 222.41628552 360.37467957 210.31698608 C360.35961113 208.48534409 360.35961113 208.48534409 360.34423828 206.61669922 C360.31889896 203.31384713 360.30189182 200.01108685 360.28881025 196.70816779 C360.27302825 193.23949452 360.24628736 189.7709048 360.22077942 186.30229187 C360.17425534 179.75434427 360.1373849 173.20638048 360.10410655 166.65835363 C360.06569711 159.19502239 360.01633722 151.73177563 359.96612239 144.26851594 C359.86319549 128.93488046 359.77380935 113.60119733 359.69352722 98.26742554 C359.05537582 98.43969162 358.41722443 98.6119577 357.75973511 98.78944397 C354.80557616 99.58339742 351.84920415 100.36879774 348.89274597 101.15414429 C347.8894928 101.42512939 346.88623962 101.6961145 345.85258484 101.97531128 C335.89546639 104.60825131 325.91355462 106.10642672 315.69352722 107.26742554 C314.64809753 107.39890991 313.60266785 107.53039429 312.52555847 107.66586304 C279.42151239 111.20078282 244.91549307 106.07917799 212.90568542 97.77645874 C210.18588926 97.15061446 207.447224 96.71793489 204.69352722 96.26742554 Z M180.88005066 97.84237671 C135.26994163 110.47884479 85.41713492 113.32721808 39.8502655 99.17904663 C38.69326141 98.82055634 37.53625732 98.46206604 36.3441925 98.0927124 C35.46947296 97.82036774 34.59475342 97.54802307 33.69352722 97.26742554 C33.69021708 97.91088802 33.68690693 98.55435051 33.68349648 99.21731186 C33.60205718 114.91892432 33.5098974 130.62043248 33.40600014 146.32191086 C33.35600988 153.91521976 33.30956616 161.5085186 33.27165222 169.10189819 C33.23857346 175.72504874 33.19865627 182.3481179 33.15073717 188.97117829 C33.12562894 192.47370901 33.1038027 195.97618685 33.09018326 199.47878265 C33.07480111 203.40159176 33.04414231 207.32420557 33.01237488 211.24691772 C33.01021469 212.39131821 33.0080545 213.53571869 33.00582886 214.71479797 C32.88646773 226.31673168 32.10695191 236.92544885 24.69352722 246.26742554 C18.26979452 251.73443209 10.8807158 252.55824811 2.75602722 252.89242554 C1.97678894 252.93109741 1.19755066 252.96976929 0.3946991 253.00961304 C-1.50534656 253.10286681 -3.40587556 253.18618516 -5.30647278 253.26742554 C-5.38798022 255.32926186 -5.44589218 257.39203903 -5.49397278 259.45492554 C-5.52877747 260.60348022 -5.56358215 261.75203491 -5.59944153 262.93539429 C-5.27970811 266.57182904 -4.4880555 268.37801694 -2.30647278 271.26742554 C0.64808215 272.744703 3.6459135 272.41904374 6.88574219 272.42132568 C7.63529684 272.42570794 8.3848515 272.43009019 9.15711993 272.43460524 C11.68203487 272.4480162 14.20691489 272.45417721 16.7318573 272.46029663 C18.53682616 272.46819573 20.34179344 272.47646456 22.14675903 272.4850769 C28.08551012 272.51131717 34.02426834 272.52660559 39.96305847 272.54086304 C42.00539848 272.54622171 44.04773844 272.55159922 46.09007835 272.55699539 C54.58357666 272.5786262 63.07707304 272.59736419 71.57059193 272.60861778 C83.75410421 272.62486524 95.93729798 272.65806008 108.12069017 272.71501863 C116.68124743 272.75367958 125.24171937 272.77324586 133.80236167 272.77853835 C138.91837161 272.78219681 144.034042 272.7942707 149.14995766 272.82664108 C153.96236599 272.8566544 158.7742281 272.86305769 163.58670998 272.85125732 C165.35360751 272.85103603 167.1205299 272.85938717 168.88734055 272.87691116 C171.29900875 272.89953034 173.70868408 272.89134349 176.12036133 272.87542725 C176.82036737 272.88930933 177.52037341 272.90319142 178.24159175 272.91749418 C181.87636707 272.85834595 183.64656238 272.30093541 186.62927055 270.1727438 C189.19807976 266.55729791 189.31098332 264.58595754 189.2947998 260.17433167 C189.29907193 259.47177209 189.30334405 258.76921251 189.30774564 258.04536325 C189.31596528 255.69709929 189.28851103 253.35063159 189.26115417 251.00253296 C189.25974347 249.31708824 189.26053613 247.63164044 189.2633667 245.94619751 C189.26480138 241.37405596 189.23540332 236.80257018 189.20049691 232.23058105 C189.16924204 227.4513365 189.16630336 222.67207695 189.16036987 217.89274597 C189.14482888 208.84398784 189.10379692 199.79553172 189.05362242 190.74690658 C188.99773696 180.44473187 188.97024446 170.14254274 188.94514525 159.84025419 C188.89288132 138.64914273 188.804934 117.45830316 188.69352722 96.26742554 C185.94853503 96.26742554 183.50696589 97.11162604 180.88005066 97.84237671 Z " fill="currentColor" transform="translate(59.30647277832031,111.73257446289063)"/>
</svg>
